<svg width="848" height="500" xmlns="http://www.w3.org/2000/svg">
<g>
<path class="layer" d="M0,338.8767324811621L11.801962126397443,339.0890200441066C23.603924252794886,339.30130760705106,47.20784850558977,339.72588273294,70.77952696022511,340.371682333676C94.35120541486044,341.01748193441205,117.89063807133623,341.88450600999516,141.430070727812,343.45674675031955C164.96950338428778,345.02898749064394,188.5089360407636,347.3064448957098,212.0483686972393,349.3828496753526C235.58780135371512,351.45925445499535,259.1272340101909,353.3346066092152,282.6989124648262,356.57366904195095C306.27059091946154,359.81273147468664,329.87451517225645,364.4155041859383,353.4461936268918,368.6985841883423C377.0178720815272,372.98166419074636,400.55730473800287,376.9450514843027,424.0967373944786,380.44398251143207C447.6361700509545,383.9429135385613,471.17560270743024,386.97738829926357,494.715035363906,390.0647421337082C518.2544680203818,393.15209596815276,541.7939006768576,396.2923288763398,565.3655791314928,398.5625579039722C588.9372575861281,400.8327869316045,612.5411818389231,402.2330120786822,636.1128602935585,403.95387230236355C659.6845387481939,405.6747325260449,683.2239714046696,407.71622782633,706.7634040611453,409.09184038910143C730.3028367176211,410.4674529518729,753.8422693740969,411.1771827771306,777.3817020305727,411.9900487289717C800.9211346870485,412.80291468081276,824.4605673435243,413.7189167592372,836.2302836717621,414.1769177984493L848,414.63491883766153L848,480L836.2302836717621,480C824.4605673435243,480,800.9211346870485,480,777.3817020305727,480C753.8422693740969,480,730.3028367176211,480,706.7634040611453,480C683.2239714046696,480,659.6845387481939,480,636.1128602935584,480C612.5411818389231,480,588.9372575861281,480,565.3655791314928,480C541.7939006768576,480,518.2544680203818,480,494.715035363906,480C471.17560270743024,480,447.6361700509545,480,424.0967373944787,480C400.55730473800287,480,377.0178720815272,480,353.4461936268918,480C329.87451517225645,480,306.27059091946154,480,282.6989124648262,480C259.1272340101909,480,235.58780135371512,480,212.0483686972393,480C188.5089360407636,480,164.96950338428778,480,141.430070727812,480C117.89063807133623,480,94.35120541486044,480,70.77952696022511,480C47.20784850558977,480,23.603924252794886,480,11.801962126397443,480L0,480Z" fill="rgb(191, 105, 105)" title="TV">
</path>
<path class="layer" d="M0,301.1058920287043L11.801962126397443,301.46481850156596C23.603924252794886,301.8237449744275,47.20784850558977,302.5415979201507,70.77952696022511,303.7407019375881C94.35120541486044,304.9398059550255,117.89063807133623,306.6201610441772,141.430070727812,308.8935428619625C164.96950338428778,311.1669246797477,188.5089360407636,314.0333332261665,212.0483686972393,316.7461191583136C235.58780135371512,319.45890509046063,259.1272340101909,322.01806840833586,282.6989124648262,326.0410253994612C306.27059091946154,330.06398239058643,329.87451517225645,335.55073305496177,353.4461936268918,340.8661780381664C377.0178720815272,346.1816230213711,400.55730473800287,351.3257623234052,424.0967373944786,355.69924808675336C447.6361700509545,360.07273385010154,471.17560270743024,363.6755660747638,494.715035363906,367.7484772166663C518.2544680203818,371.82138835856875,541.7939006768576,376.3643784177114,565.3655791314928,379.74802219983894C588.9372575861281,383.13166598196653,612.5411818389231,385.355963487079,636.1128602935585,387.67028410093957C659.6845387481939,389.98460471480007,683.2239714046696,392.3889484374086,706.7634040611453,394.10416199649535C730.3028367176211,395.819375555582,753.8422693740969,396.8454589511469,777.3817020305727,397.97325596962145C800.9211346870485,399.10105298809594,824.4605673435243,400.33056362948014,836.2302836717621,400.9453189501722L848,401.5600742708643L848,414.63491883766153L836.2302836717621,414.1769177984493C824.4605673435243,413.7189167592372,800.9211346870485,412.80291468081276,777.3817020305727,411.9900487289717C753.8422693740969,411.1771827771306,730.3028367176211,410.4674529518729,706.7634040611453,409.09184038910143C683.2239714046696,407.71622782633,659.6845387481939,405.6747325260449,636.1128602935584,403.95387230236355C612.5411818389231,402.2330120786822,588.9372575861281,400.8327869316045,565.3655791314928,398.5625579039722C541.7939006768576,396.2923288763398,518.2544680203818,393.15209596815276,494.715035363906,390.0647421337082C471.17560270743024,386.97738829926357,447.6361700509545,383.9429135385613,424.0967373944787,380.443982511432C400.55730473800287,376.9450514843027,377.0178720815272,372.98166419074636,353.4461936268918,368.6985841883423C329.87451517225645,364.4155041859383,306.27059091946154,359.81273147468664,282.6989124648262,356.57366904195095C259.1272340101909,353.3346066092152,235.58780135371512,351.45925445499535,212.0483686972393,349.3828496753525C188.5089360407636,347.3064448957098,164.96950338428778,345.02898749064394,141.430070727812,343.45674675031955C117.89063807133623,341.88450600999516,94.35120541486044,341.01748193441205,70.77952696022511,340.37168233367606C47.20784850558977,339.72588273294,23.603924252794886,339.30130760705106,11.801962126397443,339.0890200441066L0,338.8767324811621Z" fill="rgb(191, 191, 105)" title="Radio">
</path>
<path class="layer" d="M0,243.357871386622L11.801962126397443,244.63158851807728C23.603924252794886,245.9053056495326,47.20784850558977,248.45273991244323,70.77952696022511,251.57680817739364C94.35120541486044,254.70087644234403,117.89063807133623,258.4015787093342,141.430070727812,262.6464259257075C164.96950338428778,266.89127314208076,188.5089360407636,271.6802653078371,212.0483686972393,276.60254620589234C235.58780135371512,281.52482710394753,259.1272340101909,286.5803967343017,282.6989124648262,292.77248069214687C306.27059091946154,298.964564649992,329.87451517225645,306.29316293532816,353.4461936268918,313.5482030517547C377.0178720815272,320.80324316818127,400.55730473800287,327.98472511569815,424.0967373944786,334.07860992573575C447.6361700509545,340.17249473577334,471.17560270743024,345.17878240833153,494.715035363906,350.692791129161C518.2544680203818,356.20679984999043,541.7939006768576,362.2285296190912,565.3655791314928,366.9118847339259C588.9372575861281,371.5952398487605,612.5411818389231,374.9402203093291,636.1128602935585,378.1003383805853C659.6845387481939,381.26045645184166,683.2239714046696,384.2357121337856,706.7634040611453,386.5036309257714C730.3028367176211,388.7715497177572,753.8422693740969,390.3321316197848,777.3817020305727,391.98837093657403C800.9211346870485,393.6446102533633,824.4605673435243,395.3965069849143,836.2302836717621,396.27245535068977L848,397.1484037164652L848,401.5600742708643L836.2302836717621,400.9453189501722C824.4605673435243,400.33056362948014,800.9211346870485,399.10105298809594,777.3817020305727,397.97325596962145C753.8422693740969,396.8454589511469,730.3028367176211,395.819375555582,706.7634040611453,394.1041619964953C683.2239714046696,392.3889484374086,659.6845387481939,389.98460471480007,636.1128602935584,387.67028410093957C612.5411818389231,385.355963487079,588.9372575861281,383.13166598196653,565.3655791314928,379.74802219983894C541.7939006768576,376.3643784177114,518.2544680203818,371.82138835856875,494.715035363906,367.74847721666634C471.17560270743024,363.6755660747638,447.6361700509545,360.07273385010154,424.0967373944787,355.6992480867534C400.55730473800287,351.3257623234052,377.0178720815272,346.1816230213711,353.4461936268918,340.8661780381664C329.87451517225645,335.55073305496177,306.27059091946154,330.06398239058643,282.6989124648262,326.0410253994612C259.1272340101909,322.01806840833586,235.58780135371512,319.45890509046063,212.0483686972393,316.7461191583136C188.5089360407636,314.0333332261665,164.96950338428778,311.1669246797477,141.430070727812,308.8935428619625C117.89063807133623,306.6201610441772,94.35120541486044,304.9398059550255,70.77952696022511,303.74070193758814C47.20784850558977,302.5415979201507,23.603924252794886,301.8237449744275,11.801962126397443,301.4648185015659L0,301.1058920287043Z" fill="rgb(105, 191, 105)" title="Newspapers">
</path>
<path class="layer" d="M0,198.4816138355236L11.801962126397443,200.2204433757753C23.603924252794886,201.95927291602698,47.20784850558977,205.43693199653035,70.77952696022511,209.91443998774716C94.35120541486044,214.39194797896394,117.89063807133623,219.8693048808942,141.430070727812,225.86187322726354C164.96950338428778,231.8544415736329,188.5089360407636,238.36222136444133,212.0483686972393,244.99823042769833C235.58780135371512,251.63423949095537,259.1272340101909,258.3984778266609,282.6989124648262,266.201222781197C306.27059091946154,274.00396773573306,329.87451517225645,282.84521930909955,353.4461936268918,291.5054417659966C377.0178720815272,300.1656642228936,400.55730473800287,308.64485756332124,424.0967373944786,315.9030180838135C447.6361700509545,323.16117860430575,471.17560270743024,329.1983063048627,494.715035363906,335.5529027706923C518.2544680203818,341.9074992365219,541.7939006768576,348.57956446762415,565.3655791314928,354.0578789097313C588.9372575861281,359.53619335183856,612.5411818389231,363.8207570049506,636.1128602935585,367.73911993235083C659.6845387481939,371.65748285975104,683.2239714046696,375.2096450614394,706.7634040611453,378.0351803826732C730.3028367176211,380.86071570390703,753.8422693740969,382.9596241446862,777.3817020305727,385.1482513488406C800.9211346870485,387.33687855299496,824.4605673435243,389.6152245205246,836.2302836717621,390.75439750428933L848,391.89357048805414L848,397.1484037164652L836.2302836717621,396.27245535068977C824.4605673435243,395.3965069849143,800.9211346870485,393.6446102533633,777.3817020305727,391.98837093657403C753.8422693740969,390.3321316197848,730.3028367176211,388.7715497177572,706.7634040611453,386.5036309257714C683.2239714046696,384.2357121337856,659.6845387481939,381.26045645184166,636.1128602935584,378.10033838058536C612.5411818389231,374.9402203093291,588.9372575861281,371.5952398487605,565.3655791314928,366.9118847339258C541.7939006768576,362.2285296190912,518.2544680203818,356.20679984999043,494.715035363906,350.692791129161C471.17560270743024,345.17878240833153,447.6361700509545,340.17249473577334,424.0967373944787,334.07860992573575C400.55730473800287,327.98472511569815,377.0178720815272,320.80324316818127,353.4461936268918,313.5482030517547C329.87451517225645,306.29316293532816,306.27059091946154,298.964564649992,282.6989124648262,292.7724806921468C259.1272340101909,286.5803967343017,235.58780135371512,281.52482710394753,212.0483686972393,276.60254620589234C188.5089360407636,271.6802653078371,164.96950338428778,266.89127314208076,141.430070727812,262.6464259257075C117.89063807133623,258.4015787093342,94.35120541486044,254.70087644234403,70.77952696022511,251.57680817739364C47.20784850558977,248.45273991244323,23.603924252794886,245.9053056495326,11.801962126397443,244.63158851807734L0,243.357871386622Z" fill="rgb(105, 191, 191)" title="Magazines">
</path>
<path class="layer" d="M0,131.52087665139555L11.801962126397443,133.97305074383542C23.603924252794886,136.42522483627525,47.20784850558977,141.3295730211549,70.77952696022511,146.72342467046144C94.35120541486044,152.1172763197679,117.89063807133623,158.00063143350124,141.430070727812,164.77195033578894C164.96950338428778,171.54326923807662,188.5089360407636,179.20255192891872,212.0483686972393,187.46504304542336C235.58780135371512,195.72753416192802,259.1272340101909,204.59323370409527,282.6989124648262,214.47194000688185C306.27059091946154,224.3506463096684,329.87451517225645,235.24235937307427,353.4461936268918,245.76546897052768C377.0178720815272,256.288578567981,400.55730473800287,266.4430846994819,424.0967373944786,275.2098952509625C447.6361700509545,283.9767058024431,471.17560270743024,291.35582077390353,494.715035363906,299.0155196402983C518.2544680203818,306.67521850669317,541.7939006768576,314.6155012680224,565.3655791314928,321.14372406863384C588.9372575861281,327.67194686924523,612.5411818389231,332.78810970913884,636.1128602935585,337.4557625503664C659.6845387481939,342.1234153915939,683.2239714046696,346.34255823415515,706.7634040611453,349.79159433331535C730.3028367176211,353.2406304324756,753.8422693740969,355.9195597882346,777.3817020305727,358.6857490764099C800.9211346870485,361.4519383645852,824.4605673435243,364.3053875851768,836.2302836717621,365.7321121954726L848,367.15883680576843L848,391.89357048805414L836.2302836717621,390.75439750428933C824.4605673435243,389.6152245205246,800.9211346870485,387.33687855299496,777.3817020305727,385.1482513488406C753.8422693740969,382.9596241446862,730.3028367176211,380.86071570390703,706.7634040611453,378.03518038267316C683.2239714046696,375.2096450614394,659.6845387481939,371.65748285975104,636.1128602935584,367.73911993235083C612.5411818389231,363.8207570049506,588.9372575861281,359.53619335183856,565.3655791314928,354.0578789097314C541.7939006768576,348.57956446762415,518.2544680203818,341.9074992365219,494.715035363906,335.5529027706923C471.17560270743024,329.1983063048627,447.6361700509545,323.16117860430575,424.0967373944787,315.9030180838135C400.55730473800287,308.64485756332124,377.0178720815272,300.1656642228936,353.4461936268918,291.5054417659966C329.87451517225645,282.84521930909955,306.27059091946154,274.00396773573306,282.6989124648262,266.201222781197C259.1272340101909,258.3984778266609,235.58780135371512,251.63423949095537,212.0483686972393,244.99823042769833C188.5089360407636,238.36222136444133,164.96950338428778,231.8544415736329,141.430070727812,225.86187322726354C117.89063807133623,219.8693048808942,94.35120541486044,214.39194797896394,70.77952696022511,209.91443998774716C47.20784850558977,205.43693199653035,23.603924252794886,201.95927291602698,11.801962126397443,200.2204433757753L0,198.4816138355236Z" fill="rgb(105, 105, 191)" title="Other">
</path>
<path class="layer" d="M0,0L11.801962126397443,0C23.603924252794886,0,47.20784850558977,0,70.77952696022511,0C94.35120541486044,0,117.89063807133623,0,141.430070727812,0C164.96950338428778,0,188.5089360407636,0,212.0483686972393,0C235.58780135371512,0,259.1272340101909,0,282.6989124648262,0C306.27059091946154,0,329.87451517225645,0,353.4461936268918,0C377.0178720815272,0,400.55730473800287,0,424.0967373944786,0C447.6361700509545,0,471.17560270743024,0,494.715035363906,0C518.2544680203818,0,541.7939006768576,0,565.3655791314928,0C588.9372575861281,0,612.5411818389231,0,636.1128602935585,0C659.6845387481939,0,683.2239714046696,0,706.7634040611453,0C730.3028367176211,0,753.8422693740969,0,777.3817020305727,0C800.9211346870485,0,824.4605673435243,0,836.2302836717621,0L848,0L848,367.15883680576843L836.2302836717621,365.7321121954726C824.4605673435243,364.3053875851768,800.9211346870485,361.4519383645852,777.3817020305727,358.6857490764099C753.8422693740969,355.9195597882346,730.3028367176211,353.2406304324756,706.7634040611453,349.79159433331535C683.2239714046696,346.34255823415515,659.6845387481939,342.1234153915939,636.1128602935584,337.45576255036633C612.5411818389231,332.78810970913884,588.9372575861281,327.67194686924523,565.3655791314928,321.1437240686338C541.7939006768576,314.6155012680224,518.2544680203818,306.67521850669317,494.715035363906,299.01551964029835C471.17560270743024,291.35582077390353,447.6361700509545,283.9767058024431,424.0967373944787,275.2098952509625C400.55730473800287,266.4430846994819,377.0178720815272,256.288578567981,353.4461936268918,245.76546897052762C329.87451517225645,235.24235937307427,306.27059091946154,224.3506463096684,282.6989124648262,214.47194000688182C259.1272340101909,204.59323370409527,235.58780135371512,195.72753416192802,212.0483686972393,187.46504304542336C188.5089360407636,179.20255192891872,164.96950338428778,171.54326923807662,141.430070727812,164.77195033578892C117.89063807133623,158.00063143350124,94.35120541486044,152.1172763197679,70.77952696022511,146.72342467046144C47.20784850558977,141.3295730211549,23.603924252794886,136.42522483627525,11.801962126397443,133.97305074383542L0,131.52087665139555Z" fill="rgb(191, 105, 191)" title="Pure-Play Internet">
</path>
<g class="x axis" transform="translate(0,480)" fill="none" font-size="10" font-family="sans-serif" text-anchor="middle" style="stroke-width: 1px; font-size: 10px; font-family: Arial, Helvetica;">
<path class="domain" stroke="#000" d="M0.5,6V0.5H848.5V6" style="shape-rendering: crispedges; fill: none; stroke: rgb(204, 204, 204);">
</path>
<g class="tick" opacity="1" transform="translate(0.5241843486196669,0)">
<line stroke="#000" y2="6" style="shape-rendering: crispedges; fill: none; stroke: rgb(204, 204, 204);">
</line>
<text fill="#000" y="9" dy="0.71em">
2012</text>
</g>
<g class="tick" opacity="1" transform="translate(71.33595710700433,0)">
<line stroke="#000" y2="6" style="shape-rendering: crispedges; fill: none; stroke: rgb(204, 204, 204);">
</line>
<text fill="#000" y="9" dy="0.71em">
2013</text>
</g>
<g class="tick" opacity="1" transform="translate(141.95425507643168,0)">
<line stroke="#000" y2="6" style="shape-rendering: crispedges; fill: none; stroke: rgb(204, 204, 204);">
</line>
<text fill="#000" y="9" dy="0.71em">
2014</text>
</g>
<g class="tick" opacity="1" transform="translate(212.57255304585902,0)">
<line stroke="#000" y2="6" style="shape-rendering: crispedges; fill: none; stroke: rgb(204, 204, 204);">
</line>
<text fill="#000" y="9" dy="0.71em">
2015</text>
</g>
<g class="tick" opacity="1" transform="translate(283.19085101528634,0)">
<line stroke="#000" y2="6" style="shape-rendering: crispedges; fill: none; stroke: rgb(204, 204, 204);">
</line>
<text fill="#000" y="9" dy="0.71em">
2016</text>
</g>
<g class="tick" opacity="1" transform="translate(354.002623773671,0)">
<line stroke="#000" y2="6" style="shape-rendering: crispedges; fill: none; stroke: rgb(204, 204, 204);">
</line>
<text fill="#000" y="9" dy="0.71em">
2017</text>
</g>
<g class="tick" opacity="1" transform="translate(424.62092174309834,0)">
<line stroke="#000" y2="6" style="shape-rendering: crispedges; fill: none; stroke: rgb(204, 204, 204);">
</line>
<text fill="#000" y="9" dy="0.71em">
2018</text>
</g>
<g class="tick" opacity="1" transform="translate(495.23921971252565,0)">
<line stroke="#000" y2="6" style="shape-rendering: crispedges; fill: none; stroke: rgb(204, 204, 204);">
</line>
<text fill="#000" y="9" dy="0.71em">
2019</text>
</g>
<g class="tick" opacity="1" transform="translate(565.857517681953,0)">
<line stroke="#000" y2="6" style="shape-rendering: crispedges; fill: none; stroke: rgb(204, 204, 204);">
</line>
<text fill="#000" y="9" dy="0.71em">
2020</text>
</g>
<g class="tick" opacity="1" transform="translate(636.6692904403377,0)">
<line stroke="#000" y2="6" style="shape-rendering: crispedges; fill: none; stroke: rgb(204, 204, 204);">
</line>
<text fill="#000" y="9" dy="0.71em">
2021</text>
</g>
<g class="tick" opacity="1" transform="translate(707.287588409765,0)">
<line stroke="#000" y2="6" style="shape-rendering: crispedges; fill: none; stroke: rgb(204, 204, 204);">
</line>
<text fill="#000" y="9" dy="0.71em">
2022</text>
</g>
<g class="tick" opacity="1" transform="translate(777.9058863791923,0)">
<line stroke="#000" y2="6" style="shape-rendering: crispedges; fill: none; stroke: rgb(204, 204, 204);">
</line>
<text fill="#000" y="9" dy="0.71em">
2023</text>
</g>
</g>
<defs>
<path id="path-0" d="M0,409.43836624058105L11.801962126397443,409.5445100220533C23.603924252794886,409.65065380352553,47.20784850558977,409.86294136647,70.77952696022511,410.1858411668381C94.35120541486044,410.508740967206,117.89063807133623,410.94225300499755,141.430070727812,411.72837337515983C164.96950338428778,412.51449374532194,188.5089360407636,413.65322244785483,212.0483686972393,414.69142483767627C235.58780135371512,415.7296272274977,259.1272340101909,416.6673033046075,282.6989124648262,418.28683452097545C306.27059091946154,419.9063657373433,329.87451517225645,422.2077520929691,353.4461936268918,424.3492920941712C377.0178720815272,426.4908320953732,400.55730473800287,428.4725257421514,424.0967373944786,430.221991255716C447.6361700509545,431.9714567692807,471.17560270743024,433.4886941496317,494.715035363906,435.03237106685407C518.2544680203818,436.5760479840764,541.7939006768576,438.14616443816993,565.3655791314928,439.28127895198617C588.9372575861281,440.4163934658023,612.5411818389231,441.1165060393411,636.1128602935585,441.97693615118175C659.6845387481939,442.83736626302243,683.2239714046696,443.85811391316497,706.7634040611453,444.5459201945507C730.3028367176211,445.2337264759364,753.8422693740969,445.58859138856525,777.3817020305727,445.9950243644858C800.9211346870485,446.40145734040635,824.4605673435243,446.8594583796186,836.2302836717621,447.0884588992247L848,447.31745941883077">
</path>
<path id="path-1" d="M0,319.9913122549332L11.801962126397443,320.27691927283627C23.603924252794886,320.5625262907393,47.20784850558977,321.13374032654536,70.77952696022511,322.0561921356321C94.35120541486044,322.97864394471884,117.89063807133623,324.2523335270862,141.430070727812,326.17514480614096C164.96950338428778,328.09795608519585,188.5089360407636,330.66988906093815,212.0483686972393,333.06448441683307C235.58780135371512,335.459079772728,259.1272340101909,337.67633750877553,282.6989124648262,341.30734722070605C306.27059091946154,344.9383569326366,329.87451517225645,349.98311862045006,353.4461936268918,354.7823811132544C377.0178720815272,359.5816436060588,400.55730473800287,364.13540690385406,424.0967373944786,368.0716152990928C447.6361700509545,372.00782369433153,471.17560270743024,375.3264771870137,494.715035363906,378.9066096751872C518.2544680203818,382.48674216336076,541.7939006768576,386.3283536470256,565.3655791314928,389.15529005190564C588.9372575861281,391.98222645678555,612.5411818389231,393.7944877828806,636.1128602935585,395.8120782016515C659.6845387481939,397.8296686204225,683.2239714046696,400.0525881318693,706.7634040611453,401.59800119279834C730.3028367176211,403.14341425372737,753.8422693740969,404.0113208641387,777.3817020305727,404.98165234929655C800.9211346870485,405.9519838344543,824.4605673435243,407.0247401943586,836.2302836717621,407.56111837431075L848,408.0974965542629">
</path>
<path id="path-2" d="M0,272.23188170766315L11.801962126397443,273.04820350982163C23.603924252794886,273.86452531198006,47.20784850558977,275.49716891629697,70.77952696022511,277.6587550574909C94.35120541486044,279.82034119868484,117.89063807133623,282.51086987675575,141.430070727812,285.76998439383505C164.96950338428778,289.02909891091423,188.5089360407636,292.8567992670018,212.0483686972393,296.67433268210294C235.58780135371512,300.4918660972041,259.1272340101909,304.2992325713188,282.6989124648262,309.406753045804C306.27059091946154,314.51427352028924,329.87451517225645,320.921947995145,353.4461936268918,327.2071905449606C377.0178720815272,333.49243309477623,400.55730473800287,339.6552437195517,424.0967373944786,344.88892900624455C447.6361700509545,350.12261429293744,471.17560270743024,354.4271742415477,494.715035363906,359.22063417291366C518.2544680203818,364.0140941042796,541.7939006768576,369.29645401840133,565.3655791314928,373.3299534668824C588.9372575861281,377.3634529153635,612.5411818389231,380.14809189820403,636.1128602935585,382.8853112407624C659.6845387481939,385.62253058332084,683.2239714046696,388.31233028559706,706.7634040611453,390.3038964611333C730.3028367176211,392.2954626366695,753.8422693740969,393.5887952854658,777.3817020305727,394.9808134530977C800.9211346870485,396.3728316207296,824.4605673435243,397.8635353071972,836.2302836717621,398.608887150431L848,399.35423899366475">
</path>
<path id="path-3" d="M0,220.91974261107276L11.801962126397443,222.42601594692624C23.603924252794886,223.93228928277975,47.20784850558977,226.94483595448673,70.77952696022511,230.74562408257034C94.35120541486044,234.54641221065398,117.89063807133623,239.1354417951142,141.430070727812,244.2541495764855C164.96950338428778,249.37285735785682,188.5089360407636,255.02124333613918,212.0483686972393,260.8003883167953C235.58780135371512,266.5795332974514,259.1272340101909,272.4894372804813,282.6989124648262,279.4868517366719C306.27059091946154,286.4842661928625,329.87451517225645,294.56919112221385,353.4461936268918,302.52682240887566C377.0178720815272,310.48445369553747,400.55730473800287,318.3147913395097,424.0967373944786,324.9908140047747C447.6361700509545,331.6668366700396,471.17560270743024,337.1885443565971,494.715035363906,343.12284694992667C518.2544680203818,349.05714954325623,541.7939006768576,355.4040470433577,565.3655791314928,360.48488182182865C588.9372575861281,365.56571660029954,612.5411818389231,369.3804886571399,636.1128602935585,372.91972915646807C659.6845387481939,376.45896965579635,683.2239714046696,379.7226785976125,706.7634040611453,382.2694056542223C730.3028367176211,384.81613271083205,753.8422693740969,386.6458778822355,777.3817020305727,388.5683111427073C800.9211346870485,390.4907444031791,824.4605673435243,392.50586575271944,836.2302836717621,393.51342642748955L848,394.52098710225965">
</path>
<path id="path-4" d="M0,165.0012452434596L11.801962126397443,167.09674705980535C23.603924252794886,169.19224887615113,47.20784850558977,173.38325250884262,70.77952696022511,178.31893232910429C94.35120541486044,183.2546121493659,117.89063807133623,188.9349681571977,141.430070727812,195.3169117815262C164.96950338428778,201.69885540585474,188.5089360407636,208.78238664668,212.0483686972393,216.23163673656086C235.58780135371512,223.6808868264417,259.1272340101909,231.4958557653781,282.6989124648262,240.33658139403943C306.27059091946154,249.1773070227007,329.87451517225645,259.0437893410869,353.4461936268918,268.6354553682621C377.0178720815272,278.22712139543734,400.55730473800287,287.5439711314016,424.0967373944786,295.55645666738803C447.6361700509545,303.56894220337443,471.17560270743024,310.2770635393831,494.715035363906,317.2842112054953C518.2544680203818,324.29135887160754,541.7939006768576,331.5975328678233,565.3655791314928,337.60080148918263C588.9372575861281,343.6040701105419,612.5411818389231,348.30443335704473,636.1128602935585,352.59744124135864C659.6845387481939,356.89044912567243,683.2239714046696,360.7761016477973,706.7634040611453,363.9133873579943C730.3028367176211,367.0506730681913,753.8422693740969,369.43959196646045,777.3817020305727,371.9170002126253C800.9211346870485,374.3944084587901,824.4605673435243,376.9603060528507,836.2302836717621,378.24325484988094L848,379.52620364691126">
</path>
<path id="path-5" d="M0,65.76043832569775L11.801962126397443,66.98652537191768C23.603924252794886,68.21261241813761,47.20784850558977,70.66478651057747,70.77952696022511,73.36171233523072C94.35120541486044,76.05863815988397,117.89063807133623,79.0003157167506,141.430070727812,82.38597516789444C164.96950338428778,85.77163461903827,188.5089360407636,89.6012759644593,212.0483686972393,93.73252152271164C235.58780135371512,97.86376708096395,259.1272340101909,102.29661685204758,282.6989124648262,107.23597000344087C306.27059091946154,112.17532315483415,329.87451517225645,117.6211796865371,353.4461936268918,122.88273448526381C377.0178720815272,128.1442892839905,400.55730473800287,133.22154234974093,424.0967373944786,137.60494762548123C447.6361700509545,141.98835290122156,471.17560270743024,145.67791038695174,494.715035363906,149.50775982014918C518.2544680203818,153.33760925334656,541.7939006768576,157.3077506340112,565.3655791314928,160.57186203431692C588.9372575861281,163.83597343462264,612.5411818389231,166.39405485456945,636.1128602935585,168.7278812751832C659.6845387481939,171.0617076957969,683.2239714046696,173.17127911707757,706.7634040611453,174.89579716665767C730.3028367176211,176.62031521623774,753.8422693740969,177.9597798941173,777.3817020305727,179.34287453820494C800.9211346870485,180.72596918229263,824.4605673435243,182.15269379258845,836.2302836717621,182.86605609773633L848,183.57941840288424">
</path>
</defs>
<text dy="0.5ex" class="label">
<textPath xlink:href="#path-0" startOffset="5%" text-anchor="start" style="font-size: 30px; font-family: Arial, Helvetica; font-weight: normal;">
TV</textPath>
</text>
<text dy="0.5ex" class="label">
<textPath xlink:href="#path-1" startOffset="5%" text-anchor="start" style="font-size: 11px; font-family: Arial, Helvetica; font-weight: normal;">
Radio</textPath>
</text>
<text dy="0.5ex" class="label">
<textPath xlink:href="#path-2" startOffset="5%" text-anchor="start" style="font-size: 11px; font-family: Arial, Helvetica; font-weight: normal;">
Newspapers</textPath>
</text>
<text dy="0.5ex" class="label">
<textPath xlink:href="#path-3" startOffset="5%" text-anchor="start" style="font-size: 11px; font-family: Arial, Helvetica; font-weight: normal;">
Magazines</textPath>
</text>
<text dy="0.5ex" class="label">
<textPath xlink:href="#path-4" startOffset="5%" text-anchor="start" style="font-size: 11px; font-family: Arial, Helvetica; font-weight: normal;">
Other</textPath>
</text>
<text dy="0.5ex" class="label">
<textPath xlink:href="#path-5" startOffset="92%" text-anchor="end" style="font-size: 30px; font-family: Arial, Helvetica; font-weight: normal;">
Internet</textPath>
</text>
</g>
</svg>
